<svg xmlns="http://www.w3.org/2000/svg" version="1.1" xmlns:xlink="http://www.w3.org/1999/xlink" xmlns:svgjs="http://svgjs.dev/svgjs" width="1500" height="1500" viewBox="0 0 1500 1500"><rect width="1500" height="1500" fill="#f3f3f3"></rect><g transform="matrix(0.6666666666666666,0,0,0.6666666666666666,249.33803978160796,669.1676993351645)"><svg viewBox="0 0 396 64" data-background-color="#f3f3f3" preserveAspectRatio="xMidYMid meet" height="242" width="1500" xmlns="http://www.w3.org/2000/svg" xmlns:xlink="http://www.w3.org/1999/xlink"><g id="tight-bounds" transform="matrix(1,0,0,1,0.2621362464832373,0.0657060488604202)"><svg viewBox="0 0 395.52 63.863857670108004" height="63.863857670108004" width="395.52"><g><svg viewBox="0 0 484.4799621921295 78.2280525623419" height="63.863857670108004" width="395.52"><g><rect width="5.104693568322892" height="56.88798323093603" x="70.49219645542213" y="10.670034665702936" fill="#86ba94" opacity="1" stroke-width="0" stroke="transparent" fill-opacity="1" class="rect-yte-0" data-fill-palette-color="primary" rx="1%" id="yte-0" data-palette-color="#86ba94"></rect></g><g transform="matrix(1,0,0,1,88.95996219212955,10.81154706179979)"><svg viewBox="0 0 395.52 56.60495843874232" height="56.60495843874232" width="395.52"><g id="textblocktransform"><svg viewBox="0 0 395.52 56.60495843874232" height="56.60495843874232" width="395.52" id="textblock"><g><svg viewBox="0 0 395.52 56.60495843874232" height="56.60495843874232" width="395.52"><g transform="matrix(1,0,0,1,0,0)"><svg width="395.52" viewBox="1 -38.9 276.68 39.6" height="56.60495843874232" data-palette-color="#86ba94"><g class="wordmark-text-0" data-fill-palette-color="primary" id="text-0"><path d="M29.8-30.7L29.8-38.9 46.2-38.9 46.2-30.7 43.7-30.7 43.7 0 29.65 0 15-22.55 15-8.2 17.4-8.2 17.4 0 1 0 1-8.2 3.5-8.2 3.5-30.7 1-30.7 1-38.9 19.05-38.9 32.2-18.85 32.2-30.7 29.8-30.7ZM62.9 0.7Q55.8 0.7 51.8-3.03 47.8-6.75 47.8-13.9L47.8-13.9Q47.8-21.05 51.8-24.78 55.8-28.5 62.9-28.5L62.9-28.5Q70.1-28.5 74.05-24.73 78-20.95 78-13.9L78-13.9Q78-6.75 74-3.03 70 0.7 62.9 0.7L62.9 0.7ZM62.9-8.2Q64.35-8.2 65.07-8.97 65.8-9.75 65.8-11.4L65.8-11.4 65.8-16.4Q65.8-18.05 65.07-18.82 64.35-19.6 62.9-19.6L62.9-19.6Q61.45-19.6 60.72-18.82 60-18.05 60-16.4L60-16.4 60-11.4Q60-9.75 60.72-8.97 61.45-8.2 62.9-8.2L62.9-8.2ZM110.3-8.2L112.5-8.2 112.5 0 98.8 0 98.8-3.9Q95.2 0.7 89.8 0.7L89.8 0.7Q85.65 0.7 83.57-1.9 81.5-4.5 81.5-9.05L81.5-9.05 81.5-19.6 79.3-19.6 79.3-27.8 93-27.8 93-11.4Q93-9.75 93.72-8.97 94.45-8.2 95.9-8.2L95.9-8.2Q97.35-8.2 98.07-8.97 98.8-9.75 98.8-11.4L98.8-11.4 98.8-19.6 96.1-19.6 96.1-27.8 110.3-27.8 110.3-8.2ZM135.24-28.5Q136.24-28.5 137.14-28.3 138.04-28.1 138.64-27.8L138.64-27.8 138.64-18.25Q136.59-19.1 134.24-19.1L134.24-19.1Q131.09-19.1 129.39-17.45 127.69-15.8 127.69-12.55L127.69-12.55 127.69-8.2 132.19-8.2 132.19 0 113.99 0 113.99-8.2 116.19-8.2 116.19-19.6 113.99-19.6 113.99-27.8 127.69-27.8 127.69-24.15Q129.09-26.25 130.89-27.38 132.69-28.5 135.24-28.5L135.24-28.5ZM152.84-30.55L142.64-30.55 142.64-38.9 152.84-38.9 152.84-30.55ZM156.14 0L140.24 0 140.24-8.2 142.44-8.2 142.44-19.6 140.24-19.6 140.24-27.8 153.94-27.8 153.94-8.2 156.14-8.2 156.14 0ZM169.69 0.7Q163.39 0.7 157.54-1.3L157.54-1.3 157.54-8.7 165.64-8.7 165.64-8.2Q165.64-5.8 168.69-5.8L168.69-5.8Q171.39-5.8 171.39-7.65L171.39-7.65Q171.39-8.65 170.61-9.15 169.84-9.65 167.89-10L167.89-10 165.39-10.45Q157.54-11.85 157.54-19.35L157.54-19.35Q157.54-23.7 160.84-26.1 164.14-28.5 169.74-28.5L169.74-28.5Q175.99-28.5 180.29-26.4L180.29-26.4 180.29-19.45 172.69-19.45 172.69-19.95Q172.69-20.95 172.01-21.48 171.34-22 170.04-22L170.04-22Q167.54-22 167.54-20.4L167.54-20.4Q167.54-19.55 168.24-19.1 168.94-18.65 170.79-18.25L170.79-18.25 173.64-17.7Q178.09-16.85 179.99-14.55 181.89-12.25 181.89-8.65L181.89-8.65Q181.89-4.1 178.71-1.7 175.54 0.7 169.69 0.7L169.69 0.7ZM214.49-8.2L216.69-8.2 216.69 0 200.89 0 200.89-8.2 202.99-8.2 202.99-16.4Q202.99-18.05 202.29-18.82 201.59-19.6 200.19-19.6L200.19-19.6Q197.19-19.6 197.19-16.4L197.19-16.4 197.19-8.2 199.29-8.2 199.29 0 183.49 0 183.49-8.2 185.69-8.2 185.69-30.7 183.49-30.7 183.49-38.9 197.19-38.9 197.19-23.9Q199.04-26.2 201.19-27.35 203.34-28.5 206.19-28.5L206.19-28.5Q210.34-28.5 212.41-25.9 214.49-23.3 214.49-18.75L214.49-18.75 214.49-8.2ZM246.63-38.9L255.08-8.2 257.08-8.2 257.08 0 237.48 0 237.48-8.2 240.48-8.2 239.68-12.2 232.88-12.2 232.08-8.2 235.08-8.2 235.08 0 217.98 0 217.98-8.2 219.98-8.2 228.43-38.9 246.63-38.9ZM236.03-27.45L233.98-17.5 238.58-17.5 236.53-27.45 236.03-27.45ZM277.68 0L258.68 0 258.68-8.2 261.18-8.2 261.18-30.7 258.68-30.7 258.68-38.9 277.68-38.9 277.68-30.7 275.18-30.7 275.18-8.2 277.68-8.2 277.68 0Z" fill="#86ba94" data-fill-palette-color="primary"></path></g></svg></g></svg></g></svg></g></svg></g><g><svg viewBox="0 0 57.1291242870376 78.2280525623419" height="78.2280525623419" width="57.1291242870376"><g><svg xmlns="http://www.w3.org/2000/svg" xml:space="preserve" viewBox="27.90687214858466 19.247 44.187663647067176 60.50705165761087" x="0" y="0" height="78.2280525623419" width="57.1291242870376" class="icon-icon-0" data-fill-palette-color="accent" id="icon-0"><circle cx="53.443" cy="68.535" r="1.5" fill="#263238" data-fill-palette-color="accent"></circle><circle cx="50.721" cy="73.103" r="1.5" fill="#263238" data-fill-palette-color="accent"></circle><path d="M71.833 36.36c-3.506-5.067-8.909-5.906-9.957-6.023a23 23 0 0 0-1.93-0.125c0.14-0.132 0.281-0.255 0.419-0.393 1.581-1.581 2.826-3.34 3.505-4.953 1.152-2.736 0.314-4.155-0.287-4.756-0.394-0.394-1.106-0.863-2.268-0.863-2.072 0-4.924 1.563-7.441 4.08a19 19 0 0 0-2.157 2.568v-1.301a1.463 1.463 0 1 0-2.926 0v7.811c-1.799-1.157-4.461-2.207-8.256-2.207-0.794 0-1.623 0.047-2.462 0.141-1.038 0.115-6.39 0.942-9.899 5.933a1.46 1.46 0 0 0 0.616 2.183 8.29 8.29 0 0 1 5 7.605c0 0.712-0.101 1.444-0.3 2.175a1.46 1.46 0 0 0 0.573 1.583 5.8 5.8 0 0 1 2.478 4.741c0 0.331-0.033 0.67-0.099 1.036a1.46 1.46 0 0 0 0.589 1.453 9.56 9.56 0 0 1 4.01 7.761c0 3.302-1.681 6.323-4.495 8.083a1.464 1.464 0 0 0-0.093 2.418 22.65 22.65 0 0 0 13.523 4.444c4.786 0 9.372-1.469 13.262-4.248a1.464 1.464 0 0 0 0.163-2.245 10.44 10.44 0 0 1-3.245-7.594c0-3.463 1.709-6.708 4.57-8.68a1.46 1.46 0 0 0 0.532-1.737 13.5 13.5 0 0 1-0.936-4.916c0-4.932 2.688-9.477 7.016-11.861 0.362-0.2 0.623-0.543 0.718-0.946s0.012-0.827-0.223-1.167M55.942 25.395c2.117-2.116 4.306-3.223 5.373-3.223 0.104 0 0.169 0.008 0.188 0.007 0.178 0.515-0.504 2.869-3.206 5.571-2.118 2.117-4.307 3.224-5.373 3.224-0.088 0-0.146-0.008-0.175-0.008l-0.014 0.001c-0.177-0.513 0.503-2.869 3.207-5.572m5.453 24.939c0 1.667 0.257 3.32 0.764 4.924a13.47 13.47 0 0 0-4.931 10.408c0 1.046 0.128 2.069 0.357 3.062a1.495 1.495 0 1 0 0.961 2.735c0.435 0.907 0.965 1.771 1.603 2.568a19.76 19.76 0 0 1-10.175 2.796c-3.604 0-7.067-0.953-10.128-2.772a12.37 12.37 0 0 0 4.118-9.247 12.49 12.49 0 0 0-4.526-9.596q0.027-0.33 0.026-0.654c0-2.5-1.082-4.869-2.934-6.514q0.184-0.999 0.184-1.986c0-3.832-1.949-7.347-5.092-9.393 2.694-2.825 6.052-3.341 6.773-3.421a19 19 0 0 1 2.14-0.123c4.81 0 7.297 1.964 8.352 3.135 0.277 0.308 0.672 0.484 1.086 0.484s0.809-0.176 1.087-0.483c1.056-1.171 3.545-3.135 8.353-3.135 0.687 0 1.406 0.042 2.139 0.123 0.736 0.082 4.196 0.617 6.911 3.573a16.47 16.47 0 0 0-7.068 13.516" fill="#263238" data-fill-palette-color="accent"></path></svg></g></svg></g></svg></g><defs></defs></svg><rect width="395.52" height="63.863857670108004" fill="none" stroke="none" visibility="hidden"></rect></g></svg></g></svg>