<svg width="1300" height="1300" viewBox="0 0 1300 1300" fill="none" xmlns="http://www.w3.org/2000/svg">
<mask id="mask0_409_3663" style="mask-type:alpha" maskUnits="userSpaceOnUse" x="0" y="0" width="1296" height="1296">
<circle cx="647.869" cy="647.869" r="647.869" fill="#D9D9D9"/>
</mask>
<g mask="url(#mask0_409_3663)">
<path d="M1003.04 1182.75C1000.07 1184.87 996.669 1186.99 993.695 1189.12C990.296 1191.24 987.322 1193.37 983.924 1195.07C980.95 1196.76 978.401 1198.46 975.427 1200.16C975.002 1200.59 974.577 1200.59 974.152 1201.01C964.381 1206.96 954.185 1212.48 943.989 1217.58C941.015 1219.28 937.616 1220.98 934.642 1222.26C934.642 1222.26 934.218 1222.68 933.793 1222.68C930.394 1224.38 926.995 1226.08 923.597 1227.78C916.799 1231.18 909.577 1234.15 902.78 1237.12C899.381 1238.82 895.557 1240.1 892.159 1241.37C888.76 1242.65 884.937 1244.35 881.538 1245.62C878.139 1246.9 874.316 1248.59 870.917 1249.87C870.917 1249.87 870.917 1249.87 870.492 1249.87C867.093 1251.14 863.27 1252.42 859.871 1253.69C852.224 1256.24 844.152 1258.79 836.505 1261.34C833.956 1262.19 830.982 1263.04 828.433 1263.89C820.361 1266.44 812.289 1268.56 804.218 1270.26C801.244 1271.11 798.27 1271.54 794.871 1272.39C787.224 1274.09 779.152 1275.78 771.505 1277.48C769.806 1277.91 768.531 1277.91 766.832 1278.33C764.283 1278.76 761.309 1279.18 758.76 1279.61C754.937 1280.03 751.538 1280.88 747.714 1281.31C746.015 1281.73 744.316 1281.73 742.616 1282.16C740.492 1282.58 737.943 1283.01 735.394 1283.01C728.597 1283.86 721.374 1284.71 714.577 1285.56C712.453 1285.98 709.904 1285.98 707.78 1286.41H707.355C704.381 1286.83 701.407 1286.83 698.433 1287.25C695.459 1287.68 692.486 1287.68 689.512 1287.68C687.812 1287.68 685.688 1288.1 683.989 1288.1C680.59 1288.1 677.616 1288.53 674.642 1288.53C670.394 1288.53 666.571 1288.95 662.322 1288.95C658.074 1288.95 654.25 1288.95 650.002 1288.95C647.028 1288.95 644.054 1288.95 641.08 1288.95C461.799 1286.41 300.786 1210.36 185.656 1089.71C185.656 1089.71 185.656 1089.28 185.231 1089.28C172.486 1077.81 183.531 1016.63 234.937 977.974C299.512 929.118 454.152 898.53 454.152 898.53C454.152 898.53 514.054 888.758 736.244 935.066C866.244 962.255 965.231 1001.76 1020.46 1108.82C1031.93 1130.92 1043.4 1164.9 1003.04 1182.75Z" fill="white"/>
<path d="M737.518 930.392C819.087 946.961 906.178 964.804 973.302 1018.76C995.819 1037.03 1010.69 1063.79 1023.01 1089.71C1028.96 1102.45 1034.9 1115.62 1039.58 1129.64C1042.13 1138.99 1045.95 1149.61 1043.83 1160.65C1043.4 1163.63 1040.85 1167.45 1038.73 1169.58C1028.96 1179.35 1018.34 1185.29 1007.71 1192.94C945.263 1236.27 873.466 1266.86 799.119 1283.01C633.433 1319.12 454.152 1291.08 308.433 1203.99C260.002 1174.67 215.394 1138.99 177.159 1096.93C172.91 1091.83 172.91 1083.33 172.91 1077.81C173.335 1065.07 176.734 1052.75 180.982 1041.27C191.178 1014.93 204.348 988.595 226.864 970.327C243.008 959.281 260.426 949.935 278.27 942.288C334.348 918.497 393.4 901.928 454.152 895.131C459.25 894.706 460.1 901.928 455.002 902.778C396.799 914.673 339.021 932.516 285.067 956.732C265.525 966.503 244.708 975 228.989 990.294C214.119 1006.44 203.498 1026.41 195.002 1046.8C189.479 1059.12 185.655 1078.66 187.355 1088.43C214.119 1120.29 245.557 1148.33 279.544 1172.55C465.623 1302.55 748.139 1311.05 946.113 1202.71C963.956 1192.94 981.374 1181.9 997.943 1170.42C1006.01 1164.9 1014.51 1160.23 1020.88 1153.86C1021.31 1153.43 1020.88 1153.86 1020.88 1154.28C1020.88 1154.71 1020.46 1155.13 1020.46 1155.13C1020.88 1150.03 1019.18 1143.24 1017.06 1136.44C1009.41 1111.8 997.093 1085.88 983.923 1063.37C963.106 1029.8 927.845 1008.56 892.159 991.569C867.518 980.098 841.603 971.177 815.263 962.68C788.923 954.183 762.159 946.961 735.394 940.588C728.596 938.889 730.721 929.118 737.518 930.392Z" fill="black"/>
<path d="M378.527 894.705C378.527 894.705 440.553 870.065 452.024 869.215L452.874 878.986C452.874 878.986 403.593 900.228 400.619 903.627C398.07 906.6 378.527 894.705 378.527 894.705Z" fill="#7E5D6D"/>
<path d="M1144.08 1446.14H69.6719C69.6719 1446.14 97.7111 1246.9 162.711 1106.7C211.567 1000.49 306.731 932.516 392.548 901.928C416.763 893.431 435.456 884.085 452.874 879.412C452.874 880.261 531.044 866.666 594.345 873.889C693.332 884.934 794.443 918.497 795.718 918.072C850.522 932.516 917.646 973.3 1014.93 1054.87C1124.54 1146.63 1144.08 1446.14 1144.08 1446.14Z" fill="white"/>
<mask id="mask1_409_3663" style="mask-type:alpha" maskUnits="userSpaceOnUse" x="69" y="871" width="1076" height="576">
<path d="M1144.08 1446.14H69.6719C69.6719 1446.14 97.7111 1246.89 162.711 1106.7C211.567 1000.49 306.731 932.516 392.548 901.927C416.763 893.431 435.456 884.084 452.874 879.411C452.874 880.261 531.044 866.666 594.345 873.888C693.332 884.934 794.443 918.496 795.718 918.071C850.521 932.516 917.646 973.3 1014.93 1054.87C1124.54 1146.63 1144.08 1446.14 1144.08 1446.14Z" fill="white"/>
</mask>
<g mask="url(#mask1_409_3663)">
<path d="M290.588 869.639C313.954 870.489 325.849 870.914 349.215 870.489C370.032 882.809 380.228 888.757 401.47 900.228C423.137 898.953 434.183 898.103 455.849 895.554C477.516 905.75 488.137 910.848 509.804 920.62C531.895 917.221 542.941 915.097 564.607 910.848C586.699 919.345 598.17 923.169 620.261 930.391C642.353 924.868 653.398 921.469 675.49 915.097C698.431 921.045 709.902 924.018 732.843 929.116C754.934 921.045 765.98 917.221 788.072 908.299C811.438 912.123 823.333 913.822 846.699 916.796C868.366 906.6 879.411 901.502 901.078 890.456C924.869 891.731 936.764 892.156 960.555 892.581C981.797 879.835 992.418 873.463 1013.66 860.293C1040.42 858.169 1053.59 856.894 1080.36 853.92C1078.23 864.116 1077.39 869.215 1075.69 879.411C1053.59 881.96 1042.12 883.234 1020.03 884.933C998.366 898.528 987.745 905.326 965.653 918.071C941.438 918.071 929.542 917.646 905.327 916.371C883.235 927.417 872.189 932.94 850.098 943.136C826.307 940.162 814.411 938.463 790.621 935.064C768.529 943.986 757.059 948.234 734.967 955.881C711.601 950.783 700.13 947.809 677.189 941.862C655.098 948.234 643.627 951.633 621.536 957.156C599.019 949.509 587.549 945.685 565.032 937.188C542.941 941.437 531.895 943.561 509.379 946.96C487.287 937.188 476.666 932.515 454.575 921.894C432.483 924.018 421.438 924.868 399.771 926.143C378.529 914.672 367.908 908.724 347.091 895.979C327.549 895.979 317.777 895.979 298.235 895.13C295.261 885.358 293.562 880.26 290.588 869.639Z" fill="black"/>
<path d="M284.641 977.549C308.007 977.974 319.477 977.974 343.268 977.125C364.51 989.02 375.131 994.543 396.373 1005.59C418.039 1003.89 428.66 1002.61 450.327 999.641C471.994 1009.41 483.039 1014.09 505.131 1023.01C526.798 1019.18 537.418 1016.63 559.51 1011.96C582.026 1019.61 593.497 1023.43 616.013 1030.23C637.68 1023.86 648.726 1020.88 670.392 1013.66C693.333 1019.18 705.229 1021.73 728.17 1026.41C749.837 1017.91 760.458 1013.66 782.124 1004.31C805.915 1007.71 817.386 1008.99 841.177 1011.11C862.418 1000.49 873.039 994.968 894.281 983.497C918.072 984.347 930.392 984.347 954.183 983.922C975 971.177 985.196 964.38 1006.01 950.785C1032.78 948.236 1046.37 946.961 1073.14 943.138C1071.44 953.334 1071.01 958.432 1069.31 968.203C1046.8 971.177 1035.75 972.451 1013.66 974.576C992.418 988.595 982.222 995.393 960.981 1008.56C936.765 1008.99 924.445 1008.99 900.229 1008.14C878.562 1019.61 867.941 1025.13 846.275 1036.18C822.484 1034.05 810.164 1032.78 786.373 1029.38C764.706 1038.73 753.66 1042.97 731.569 1051.47C708.203 1046.8 696.307 1044.25 672.941 1038.73C650.85 1045.95 640.229 1048.92 618.137 1055.29C595.196 1048.5 583.726 1044.67 561.209 1037.03C539.118 1041.7 528.497 1044.25 506.405 1048.07C484.314 1039.15 472.843 1034.48 450.752 1024.28C429.085 1026.83 418.039 1028.1 396.373 1030.23C374.706 1019.18 364.085 1013.24 342.843 1001.34C323.301 1001.77 313.53 1002.19 294.412 1001.77C290.164 992.419 288.464 987.321 284.641 977.549Z" fill="black"/>
<path d="M278.691 1083.76C301.633 1083.33 313.528 1082.91 336.894 1082.06C358.136 1093.53 369.182 1099.05 390.848 1109.25C412.09 1106.7 422.711 1105.42 443.953 1102.03C466.044 1111.37 477.09 1115.62 499.606 1124.12C520.848 1119.44 531.469 1117.32 553.136 1111.8C576.077 1119.02 587.548 1122.42 610.489 1128.79C631.731 1121.99 642.352 1118.59 663.593 1111.37C686.959 1116.47 698.855 1118.59 722.221 1122.84C743.463 1113.92 754.084 1109.67 774.901 1099.9C798.691 1102.45 810.587 1103.72 834.378 1105.42C855.195 1094.38 865.816 1088.86 886.208 1076.96C910.423 1076.96 922.319 1076.96 946.535 1076.11C966.927 1062.94 977.123 1056.14 997.09 1042.55C1023.85 1039.57 1037.45 1037.87 1064.21 1033.63C1062.94 1043.4 1062.51 1048.5 1061.67 1058.69C1039.15 1062.09 1028.1 1063.79 1005.59 1066.34C985.195 1080.36 974.574 1087.58 954.182 1100.75C929.541 1101.6 917.221 1102.03 893.005 1101.6C871.763 1113.5 861.567 1119.02 840.325 1130.49C816.11 1128.79 804.214 1127.94 779.999 1124.97C758.757 1134.74 748.136 1139.41 726.469 1148.33C702.678 1144.51 690.783 1141.96 667.417 1136.86C645.75 1144.51 635.129 1147.91 613.463 1154.7C590.097 1148.33 578.626 1144.93 555.685 1137.71C534.018 1143.23 523.397 1145.78 501.731 1150.03C479.214 1141.53 467.744 1136.86 445.652 1127.52C423.986 1130.91 413.365 1132.19 391.698 1134.74C369.606 1124.12 358.986 1118.59 337.319 1107.12C318.201 1107.97 308.43 1108.4 289.312 1108.82C284.639 1099.05 282.94 1093.95 278.691 1083.76Z" fill="black"/>
<path d="M272.318 1189.54C295.26 1188.69 306.73 1187.84 329.671 1186.14C351.338 1197.19 362.384 1202.29 384.475 1212.06C405.292 1209.08 415.913 1207.38 437.155 1203.56C459.671 1212.48 471.142 1216.73 493.658 1224.38C514.475 1219.28 525.096 1216.73 546.338 1210.78C569.279 1217.58 581.175 1220.55 604.116 1226.08C624.933 1218.86 635.554 1215.03 656.371 1207.38C680.161 1211.63 691.632 1213.76 715.423 1217.16C736.24 1207.81 746.436 1203.14 767.253 1193.37C791.469 1195.49 803.364 1196.34 827.58 1197.61C847.972 1186.57 858.168 1180.62 878.56 1168.72C902.776 1168.3 915.096 1167.87 939.312 1166.6C959.279 1153.43 969.05 1146.63 988.593 1132.61C1015.78 1129.21 1029.38 1127.09 1056.14 1122.42C1055.29 1132.19 1055.29 1137.29 1054.44 1147.06C1031.93 1150.88 1020.88 1152.58 998.364 1155.55C978.397 1170 968.201 1176.8 948.233 1190.39C923.593 1191.67 911.273 1192.09 886.632 1192.52C866.24 1204.84 855.619 1210.78 835.227 1221.83C811.011 1220.55 798.691 1220.13 774.475 1218.01C753.658 1228.2 743.037 1232.87 722.22 1242.22C698.005 1238.82 686.109 1236.7 662.318 1232.45C641.077 1240.52 630.456 1244.35 609.214 1251.57C585.848 1246.04 573.952 1242.65 550.586 1236.27C529.345 1242.22 518.724 1244.77 497.482 1249.87C474.541 1241.8 463.07 1237.97 440.129 1229.05C418.887 1232.87 408.266 1234.57 387.024 1237.55C364.508 1227.35 353.462 1222.25 331.795 1211.21C312.678 1212.91 303.331 1213.33 284.214 1214.18C279.541 1204.41 276.992 1199.31 272.318 1189.54Z" fill="black"/>
<path d="M266.369 1294.05C288.885 1292.35 300.356 1291.5 323.297 1288.95C345.389 1299.15 356.434 1304.25 378.951 1313.59C399.768 1310.19 409.964 1308.07 430.781 1303.82C453.722 1311.89 465.193 1316.14 488.134 1323.36C508.951 1317.84 519.147 1314.87 539.539 1308.5C562.905 1314.44 574.801 1317.42 598.167 1322.51C618.559 1314.87 628.755 1311.04 649.572 1302.55C673.363 1306.37 685.258 1308.07 709.474 1311.04C729.866 1301.27 739.637 1296.6 760.029 1286.4C784.245 1288.1 796.565 1288.53 820.781 1289.38C840.748 1277.91 850.519 1271.96 870.487 1259.64C895.127 1258.79 907.023 1258.36 931.663 1256.66C950.781 1243.07 960.552 1236.27 979.67 1222.25C1006.86 1218.43 1020.45 1216.31 1047.64 1211.21C1047.22 1220.98 1047.22 1225.65 1046.79 1235.42C1024.28 1239.67 1013.23 1241.37 990.716 1244.77C971.173 1259.21 961.402 1266.44 941.859 1280.03C917.219 1282.16 904.474 1282.58 879.833 1283.43C859.866 1295.75 849.67 1302.12 829.702 1313.59C805.062 1313.17 792.742 1312.74 768.101 1311.04C747.709 1321.67 737.513 1326.34 717.121 1336.11C692.905 1333.14 680.585 1331.44 656.369 1327.61C635.552 1336.11 625.356 1339.93 604.539 1347.58C580.748 1342.48 568.853 1339.51 545.062 1333.56C524.245 1339.93 513.624 1342.91 492.807 1348.43C469.441 1341.21 457.97 1337.38 434.604 1328.89C413.787 1333.14 403.167 1335.26 382.35 1338.66C359.833 1329.31 348.363 1324.21 325.846 1314.02C307.153 1316.14 297.807 1316.99 279.114 1318.27C274.016 1308.92 271.467 1303.82 266.369 1294.05Z" fill="black"/>
</g>
<path d="M1152.16 1453.37C833.103 1454.22 384.475 1457.61 70.0964 1456.76C63.7238 1456.76 58.201 1450.82 59.4755 1444.44C74.7696 1353.1 96.0114 1263.46 126.6 1175.95C158.462 1082.48 203.07 1010.26 285.064 952.484C322.874 925.294 365.358 906.176 408.691 890.882C422.711 885.359 437.155 879.412 452.449 875.163L456.698 878.137V877.712C456.698 875.588 452.449 874.314 453.724 874.739V874.314C454.149 873.464 454.998 873.039 455.423 872.19C460.096 867.092 466.894 865.392 473.691 864.967C480.913 864.118 488.136 863.268 495.783 862.418C525.096 859.02 554.835 858.17 584.574 861.144C614.312 864.542 642.776 870.065 671.665 876.438C713.299 885.784 754.508 899.379 795.292 911.699L796.567 912.124H796.992C796.992 912.124 797.417 912.124 796.992 912.124C796.992 912.124 796.567 912.124 796.142 912.124C795.717 912.124 795.293 912.124 794.868 912.549H797.842C853.92 927.418 902.351 959.706 949.083 993.268C972.025 1010.26 994.541 1027.68 1016.63 1045.95C1039.57 1063.79 1057.42 1088.43 1071.44 1113.92C1099.05 1164.48 1116.04 1220.13 1129.21 1275.78C1141.11 1328.04 1149.61 1381.14 1155.13 1434.25L1155.55 1439.77L1155.98 1442.32V1443.59C1155.13 1447.42 1153.85 1451.24 1152.16 1453.37ZM1136.01 1438.5C1134.31 1440.2 1132.61 1443.59 1133.04 1445.72V1445.29V1444.02V1441.47C1125.82 1359.48 1112.22 1277.48 1086.73 1199.31C1069.31 1148.33 1046.8 1094.38 1004.31 1059.97C961.404 1024.28 916.796 989.02 868.364 960.98C844.149 947.386 819.083 935.065 793.168 928.268L799.541 927.843C798.691 928.693 794.868 928.693 794.443 928.268C769.377 923.17 734.966 910 710.325 901.928C675.913 890.458 640.227 884.51 604.116 881.536C568.43 878.137 532.743 881.111 497.482 884.935C490.26 885.784 483.038 886.209 476.24 887.059C468.593 888.758 460.521 888.333 453.724 882.81C453.724 882.81 453.724 882.81 453.299 882.81H452.874C453.724 883.235 449.476 881.961 449.9 879.837V879.412L454.149 882.386C439.704 886.209 426.109 893.007 411.665 898.529C397.645 904.477 383.201 909.15 369.181 915.523C314.377 940.163 264.247 976.699 224.737 1022.58C184.377 1068.04 160.587 1124.12 141.469 1181.47C113.005 1267.71 93.4624 1357.78 80.7173 1447.42L70.0964 1435.1C378.103 1435.52 823.332 1436.8 1136.01 1438.5Z" fill="black"/>
<path d="M279.965 1446.14L260.848 1288.53" stroke="#544D4D" stroke-width="3" stroke-miterlimit="10" stroke-linecap="round" stroke-linejoin="round"/>
<path d="M1022.16 1235C1022.16 1235 1009.41 1266.01 1013.23 1297.03C1017.06 1328.04 1028.1 1373.5 1012.38 1446.14" stroke="#544D4D" stroke-width="3" stroke-miterlimit="10" stroke-linecap="round" stroke-linejoin="round"/>
<path d="M378.529 894.706C386.601 892.157 400.62 894.706 404.869 901.928C421.437 929.118 461.372 1008.56 477.941 1166.18C491.111 1289.38 471.143 1511.14 471.143 1511.14L58.627 1491.6C58.627 1491.6 101.535 1338.66 137.647 1198.46C157.189 1122.84 163.562 1013.66 217.516 973.301C260.849 941.013 314.803 916.797 378.529 894.706Z" fill="black"/>
<path d="M805.916 920.621C805.916 920.621 937.191 1167.45 898.955 1497.12H1182.32C1182.32 1497.12 1172.13 1461.01 1136.44 1309.35C1105 1176.8 1073.14 1062.94 1040 1031.93C953.334 950.359 830.557 910 830.557 910C830.557 910 816.537 916.797 805.916 920.621Z" fill="black"/>
<path d="M805.915 920.621L795.719 917.647C795.719 917.647 810.588 910.425 816.961 906.176L820.784 904.052C820.784 904.052 841.176 913.399 848.398 916.797C855.621 920.196 823.333 935.915 823.333 935.915C823.333 935.915 807.189 921.046 805.915 920.621Z" fill="#7E5D6D"/>
<path d="M473.268 1126.67C473.268 1126.67 458.824 1085.46 426.111 1048.92C395.948 1014.93 340.719 962.255 336.895 950.36C334.346 942.288 337.745 927.418 345.392 910C361.536 873.039 397.647 824.608 445.229 802.941C560.784 762.157 578.628 834.804 580.327 857.745C580.752 864.118 453.726 891.732 454.15 898.105V898.529C454.15 898.529 434.608 904.902 448.627 1002.19C452.026 1025.98 466.895 1067.61 473.268 1126.67Z" fill="white"/>
<path d="M474.543 1133.04C471.569 1133.46 467.745 1131.34 466.896 1128.37L466.471 1127.52L466.046 1126.24C457.125 1103.73 444.804 1082.48 429.935 1063.37C399.772 1025.98 362.386 995.817 333.497 957.157C332.647 955.882 331.798 954.608 331.373 952.908C327.549 939.739 333.072 925.719 337.321 913.824C358.138 864.542 394.249 820.359 443.105 797.418C455.425 793.17 468.595 789.346 481.765 787.222C508.105 782.549 538.693 783.823 560.36 802.091C576.928 816.111 585.425 836.503 587.549 857.745C587.974 861.993 583.726 864.967 580.752 866.667C542.942 881.111 498.759 887.908 460.948 901.928C460.523 902.353 459.674 902.353 459.674 902.778C459.674 902.778 459.674 902.778 460.523 901.928C460.948 901.078 461.798 899.804 461.798 898.529C461.798 897.68 461.798 898.954 461.798 898.954L457.549 904.902C457.974 904.902 458.399 904.477 458.399 904.477C458.399 904.477 457.974 904.902 457.974 905.327C454.151 911.274 453.301 918.922 452.451 926.144C451.177 940.163 451.602 954.608 452.876 968.627L454.151 983.072C456.7 1012.39 465.621 1039.15 471.569 1068.04C474.543 1082.48 477.092 1096.93 479.216 1111.37C479.641 1114.35 480.066 1118.17 480.066 1121.57C478.366 1125.39 476.242 1129.22 474.543 1133.04ZM471.994 1120.29C470.719 1118.59 468.17 1117.32 466.471 1117.32C466.046 1117.32 465.621 1116.9 465.621 1116.47L465.196 1113.07C460.523 1074.41 447.778 1037.88 441.406 998.791C440.556 991.569 438.857 976.699 438.007 969.477C436.732 946.961 434.183 922.745 443.53 901.078C445.654 897.255 446.928 894.281 452.026 892.157L447.353 898.529C447.353 898.105 447.353 897.68 447.353 897.68C447.353 895.131 449.902 892.157 451.602 890.882C463.072 884.935 475.393 882.386 487.713 878.562C514.902 870.49 549.739 863.268 575.654 853.072C575.654 853.072 575.654 853.072 574.804 853.922L574.379 854.346C573.955 854.771 573.53 855.621 573.53 856.471C573.53 856.895 573.53 857.745 573.53 857.745C572.255 840.327 564.608 822.059 551.013 811.013C532.321 795.294 506.406 794.869 483.04 798.693C471.569 800.392 456.7 805.065 447.353 808.039C416.765 821.634 390.85 845 370.458 871.765C355.589 892.157 341.569 915.098 338.17 940.163C336.471 949.085 342.843 955.033 347.942 961.405C367.484 983.922 398.922 1014.51 419.739 1036.18C443.955 1060.82 464.347 1090.13 477.942 1121.57L478.366 1122.42C478.366 1121.14 474.543 1119.44 471.994 1120.29Z" fill="black"/>
<path d="M880.26 1139.84C880.26 1139.84 851.796 1029.38 837.777 994.117C823.757 959.28 797.417 919.771 796.143 917.646C755.783 852.222 757.058 823.757 770.228 812.287C783.398 800.816 815.26 802.941 873.888 854.346C884.509 866.241 947.809 937.614 954.607 976.699C958.43 998.365 946.535 1013.66 930.391 1036.18C913.823 1059.12 893.43 1089.28 880.26 1139.84Z" fill="white"/>
<path d="M880.261 1139.84C865.816 1093.1 852.647 1045.1 835.228 999.216C824.183 972.451 808.464 947.386 792.32 923.17C776.601 897.255 760.032 870.49 755.784 839.902C751.96 811.013 772.777 794.445 800.392 801.667C830.555 809.739 854.771 830.131 877.712 849.673C896.405 870.49 914.248 891.732 930.392 915.098C949.934 945.262 975 980.523 950.784 1015.36C939.738 1032.78 925.718 1048.5 914.673 1065.92C899.803 1088.86 888.333 1113.5 880.261 1139.84ZM880.261 1133.46C879.411 1131.34 878.137 1130.92 877.287 1129.64C878.562 1125.82 879.836 1121.99 881.111 1118.59C934.64 980.948 1017.91 1020.46 868.79 859.02C850.098 843.301 823.758 821.634 797.418 814.837C778.3 810.164 766.405 818.66 768.954 838.628C776.601 887.059 812.712 924.869 833.104 968.203C851.372 1003.89 860.294 1042.97 871.339 1081.21C873.888 1090.56 880.686 1115.2 882.81 1124.12C883.66 1127.09 885.359 1133.46 886.209 1136.86V1137.29C885.359 1134.74 881.96 1133.04 880.261 1133.46Z" fill="black"/>
<path d="M777.447 1043.4C768.525 1087.16 710.748 1113.5 613.46 1073.99C512.349 1033.2 468.591 935.915 457.545 907.027C517.447 794.87 475.813 717.125 475.813 717.125C613.885 705.229 734.538 866.667 734.538 866.667L753.231 946.536C754.931 953.334 758.329 959.281 763.427 963.53C772.349 979.249 782.97 1015.36 777.447 1043.4Z" fill="white"/>
<path d="M455.423 908.301C463.495 895.981 468.593 881.536 471.992 867.517C478.364 838.203 480.489 808.465 480.913 778.726V767.68C479.639 756.634 475.815 745.164 471.567 734.968C466.044 721.373 486.011 712.876 492.384 726.471C493.234 728.17 493.234 731.144 493.234 732.844C494.508 790.621 497.057 864.968 460.521 912.974C457.972 915.523 452.874 911.7 455.423 908.301Z" fill="black"/>
<path d="M739.212 865.818C745.585 869.641 747.709 874.739 748.559 879.837C751.108 890.033 750.258 901.079 752.807 911.7C754.931 921.896 761.304 931.667 763.003 942.288C765.128 953.334 771.5 976.7 774.049 988.171C774.899 990.72 773.199 993.693 770.226 994.118C768.526 994.543 767.252 994.118 765.977 993.269C760.454 988.595 757.905 983.922 754.507 977.974C748.984 967.778 745.16 958.432 741.762 946.961C738.788 936.765 740.062 925.72 737.513 915.099C735.389 904.903 729.441 895.131 727.317 884.51C726.043 879.412 725.618 873.89 729.441 867.517C731.99 864.968 736.239 864.118 739.212 865.818Z" fill="black"/>
<path d="M769.802 977.974C688.658 973.726 622.384 948.236 557.809 833.105C612.188 881.112 676.338 899.379 743.887 907.876L752.809 946.961C754.508 953.759 764.704 973.726 769.802 977.974Z" fill="black"/>
<path d="M766.404 962.255C780.849 989.445 789.346 1023.43 780.424 1053.6C773.627 1074.84 754.084 1090.56 732.842 1096.5C683.561 1109.67 626.633 1088.86 582.875 1065.49C528.921 1035.33 488.986 984.772 463.496 929.543C461.797 925.295 467.744 921.896 470.293 926.144C479.215 943.987 489.411 961.406 500.882 977.125C512.352 993.268 525.522 1008.14 540.391 1021.31C583.725 1060.39 642.352 1084.61 700.98 1084.61C761.306 1082.91 784.248 1051.05 770.228 992.419C768.104 983.072 764.705 973.301 760.032 965.229C757.483 961.83 763.855 958.007 766.404 962.255Z" fill="black"/>
<path d="M930.815 452.027C938.462 487.713 942.285 516.602 921.468 611.765C901.076 706.504 950.782 726.046 833.102 877.713C785.096 939.739 668.691 922.321 574.377 858.17C542.514 836.504 528.919 780.85 505.128 741.34C486.436 710.327 477.939 742.615 453.298 715.85C419.736 679.314 379.377 605.818 399.344 475.818C431.632 265.099 598.592 240.458 722.22 263.824C846.697 287.615 910.423 358.138 930.815 452.027Z" fill="white"/>
<path d="M474.541 753.66C464.77 737.092 452.024 722.647 440.129 707.353C428.658 691.634 419.312 674.216 411.665 656.373C361.109 532.321 380.652 357.713 504.704 284.641C556.109 254.902 618.136 247.68 675.913 252.353C799.541 261.275 912.972 318.203 939.737 449.053C954.181 506.83 934.639 566.308 923.593 622.811C918.495 650.85 922.743 679.739 922.319 708.628C921.894 737.942 913.822 767.255 902.776 794.445C895.979 813.138 884.083 829.706 871.763 845C851.371 869.641 830.979 894.706 805.064 913.824C799.116 918.072 788.495 920.196 781.273 921.046C761.306 924.02 741.763 924.87 721.796 923.595C643.626 920.196 559.933 882.386 528.495 806.765C527.221 803.791 531.469 801.667 533.168 804.216C573.953 868.791 648.724 900.654 723.07 904.902C746.011 906.177 769.377 905.752 791.894 901.079C802.939 895.556 812.711 885.785 822.057 876.863C844.998 853.922 868.364 829.281 884.933 801.242C904.9 763.432 915.946 722.223 912.547 679.314C911.698 660.196 911.273 640.229 915.096 621.111C918.495 601.994 922.743 583.726 925.292 564.183C927.841 545.491 929.116 526.373 929.116 507.68C926.992 452.876 909.149 396.373 874.312 353.889C797.417 258.301 615.587 233.236 513.201 298.661C448.626 338.595 418.462 413.366 408.691 486.013C393.822 573.105 398.07 658.922 467.319 722.223L487.711 743.464C495.783 752.811 481.338 763.857 474.541 753.66Z" fill="black"/>
<path d="M524.67 618.562C524.67 618.562 511.5 554.837 449.474 562.484C395.944 569.281 377.252 697.582 498.755 733.268" fill="white"/>
<path d="M493.234 677.615C483.463 672.092 476.666 662.746 476.241 651.275C476.666 642.778 477.94 633.007 475.816 624.51C474.541 616.438 466.045 614.314 459.672 614.739C452.875 616.014 448.626 624.51 447.352 631.308C447.352 631.733 446.927 633.007 446.927 633.432C446.502 635.556 443.103 635.556 442.254 633.432C436.731 616.863 449.051 598.595 466.894 600.72C491.96 602.419 495.358 628.759 490.685 648.726C488.136 657.223 491.535 664.87 496.208 672.092L497.058 673.367C499.182 675.916 495.783 679.314 493.234 677.615Z" fill="black"/>
<path d="M833.102 573.53C839.474 603.693 851.369 631.732 866.239 658.072C879.409 690.36 845.422 720.948 815.258 719.673C811.86 719.673 811.435 715 814.409 714.151C833.526 708.203 850.945 695.458 853.918 675.915C855.193 669.968 853.494 664.87 850.52 659.772C836.5 633.432 828.003 603.268 830.128 573.53C830.128 571.405 833.102 571.405 833.102 573.53Z" fill="black"/>
<path d="M522.547 618.988C512.776 593.922 491.534 570.131 463.07 570.556C460.521 570.131 456.272 570.981 453.723 570.981C446.501 571.406 440.553 573.955 435.03 579.053C407.841 606.242 412.514 654.249 434.606 684.412C442.253 695.033 452.024 704.38 463.07 712.027C474.115 719.674 486.436 725.622 499.606 730.72C502.579 731.569 501.305 736.242 498.331 735.818C469.867 729.87 442.677 715.85 423.985 692.484C395.096 657.648 389.148 599.445 423.56 565.458C431.207 558.661 441.828 553.563 452.449 553.563C455.847 553.563 460.945 552.713 464.344 553.563C482.187 554.412 499.181 563.334 510.226 577.354C519.998 589.249 525.521 603.693 527.22 618.138C527.22 620.687 523.396 621.537 522.547 618.988Z" fill="black"/>
<path d="M800.817 762.157C773.627 788.072 722.222 767.255 708.627 735.817C706.928 731.993 711.176 728.595 714.575 730.294C721.797 734.118 728.17 737.941 734.967 740.915C754.509 749.837 774.902 757.059 796.568 754.935C800.817 754.085 803.79 759.183 800.817 762.157Z" fill="black"/>
<path d="M674.642 616.863C664.446 616.438 656.799 607.941 657.648 597.745L658.073 585.85C658.498 575.654 666.995 568.007 677.191 568.856C687.387 569.281 695.034 577.778 694.184 587.974L693.76 599.87C693.335 609.641 684.838 617.288 674.642 616.863Z" fill="black"/>
<path d="M853.496 623.236C844.149 622.811 836.927 614.739 837.352 605.393L837.777 594.347C838.201 585.001 846.273 577.779 855.62 578.203C864.966 578.628 872.188 586.7 871.763 596.046L871.339 607.092C870.914 616.439 862.842 623.661 853.496 623.236Z" fill="black"/>
<path d="M712.877 593.922C698.857 584.576 683.563 578.203 666.57 581.602C661.047 582.451 655.524 584.151 652.125 587.974C650.851 589.674 647.877 589.249 647.877 586.7C648.302 578.203 655.524 572.68 662.321 569.281C675.491 562.484 693.759 563.759 705.655 572.68C709.903 575.229 724.348 590.948 716.7 594.347C715.001 595.196 714.151 594.772 712.877 593.922Z" fill="black"/>
<path d="M834.379 596.046C834.379 578.203 856.47 571.83 870.065 578.203C877.712 581.602 883.235 588.399 885.359 596.471C886.209 599.02 882.386 601.144 880.686 599.02C873.464 590.523 861.144 586.275 851.372 591.373C848.399 593.072 847.974 594.347 847.124 596.046C847.124 604.543 834.804 604.118 834.379 596.046Z" fill="black"/>
<path d="M733.269 523.824C742.19 526.798 751.112 518.726 749.412 508.955C748.563 503.857 746.438 498.759 742.19 494.935C729.445 483.464 676.765 473.268 644.902 488.138C616.863 501.732 692.484 510.229 733.269 523.824Z" fill="black"/>
<path d="M860.295 530.621C853.073 533.17 845.426 525.523 846.701 516.602C847.126 511.928 848.825 507.255 852.224 503.857C862.42 493.66 897.256 485.589 919.348 501.308C938.465 514.477 893.433 518.301 860.295 530.621Z" fill="black"/>
<path d="M644.477 243.006C393.399 237.908 367.909 448.202 383.628 573.529C401.046 712.875 484.314 767.679 484.314 767.679L489.837 730.719C489.837 730.719 469.869 723.921 450.752 709.902C384.477 659.771 404.87 568.431 449.902 562.908C494.935 556.96 514.477 589.673 521.275 607.516C545.066 528.921 511.504 509.379 545.066 453.725C650 340.294 723.072 416.764 774.477 431.633C830.556 447.352 867.517 429.509 888.334 409.542C903.203 395.098 922.321 422.287 922.321 422.287C922.321 422.287 894.706 248.104 644.477 243.006Z" fill="black"/>
<path d="M556.538 517.026C556.538 517.026 433.76 528.497 381.08 514.902C381.08 514.902 389.577 368.758 450.328 291.013C511.08 213.268 746.864 212.843 840.753 247.68C925.721 279.543 936.766 423.987 936.766 423.987L556.538 517.026Z" fill="black"/>
<path d="M937.19 423.987L572.68 513.203C570.556 464.347 565.458 356.438 590.523 299.51C620.686 231.112 796.144 231.536 869.641 266.373C928.268 323.726 937.19 423.987 937.19 423.987Z" fill="white"/>
<path d="M942.289 427.811C819.936 458.824 697.158 489.412 574.381 519.151C570.982 520 567.583 517.876 566.734 514.478C564.609 471.144 564.185 427.386 568.008 383.628C571.407 351.34 575.23 316.929 591.799 288.465C623.237 245.981 695.034 240.458 743.466 240.458C785.1 240.883 838.629 248.955 870.492 265.523C912.975 305.883 933.792 364.085 943.139 420.589C943.564 422.713 943.988 425.262 942.289 427.811ZM932.093 420.164C931.243 421.014 930.819 423.563 930.819 423.987C930.819 422.713 930.394 420.164 930.394 418.889C925.296 364.935 904.479 305.033 869.642 267.223C815.688 243.857 741.766 240.033 680.165 251.079C650.002 257.451 617.289 266.798 599.021 292.713C569.707 348.367 576.505 449.053 579.479 512.353L571.407 506.406C691.211 477.517 811.439 448.628 932.093 420.164Z" fill="black"/>
<path d="M1018.76 502.582C1018.76 553.987 935.492 531.046 935.492 531.046C937.616 510.229 937.616 494.51 935.917 480.915C934.642 471.144 932.943 461.798 930.819 452.451C929.119 445.654 927.42 438.856 925.721 432.059C952.91 429.085 973.302 436.732 987.747 447.778C1009.84 464.771 1018.76 489.837 1018.76 502.582Z" fill="black" stroke="black" stroke-width="3" stroke-miterlimit="10" stroke-linecap="round" stroke-linejoin="round"/>
<path d="M761.308 350.491C783.363 350.491 801.242 332.612 801.242 310.556C801.242 288.501 783.363 270.622 761.308 270.622C739.252 270.622 721.373 288.501 721.373 310.556C721.373 332.612 739.252 350.491 761.308 350.491Z" fill="white"/>
<path d="M801.243 310.556C801.243 328.824 788.922 344.118 772.354 348.791C755.785 344.118 743.465 328.824 743.465 310.556C743.465 292.288 755.785 276.994 772.354 272.321C788.922 276.994 801.243 292.288 801.243 310.556Z" fill="#C9C9C9"/>
<path d="M822.909 310.556C822.909 332.648 805.066 350.491 782.974 350.491C782.125 350.491 780.85 350.491 780.001 350.491C779.151 350.491 778.301 350.491 777.452 350.066C776.602 350.066 775.752 349.641 774.902 349.641C774.053 349.641 773.203 349.217 772.354 349.217C788.922 344.543 801.242 329.249 801.242 310.981C801.242 292.713 788.922 277.419 772.354 272.746C773.203 272.321 774.053 272.321 774.902 272.321C775.752 272.321 776.177 271.896 777.027 271.896C777.452 271.896 777.876 271.896 778.301 271.896C778.726 271.896 779.151 271.896 780.001 271.896C781.275 271.896 782.125 271.896 783.399 271.896C805.066 270.622 822.909 288.465 822.909 310.556Z" fill="black"/>
<path d="M761.308 280.818C777.876 280.818 791.046 293.988 791.046 310.556C791.046 327.125 777.876 340.295 761.308 340.295C744.739 340.295 731.569 327.125 731.569 310.556C731.569 293.988 745.164 280.818 761.308 280.818ZM761.308 270.622C739.216 270.622 721.373 288.465 721.373 310.556C721.373 332.648 739.216 350.491 761.308 350.491C783.399 350.491 801.242 332.648 801.242 310.556C801.242 288.465 783.399 270.622 761.308 270.622Z" fill="black"/>
<path d="M573.531 474.968C573.531 474.968 463.923 483.464 389.152 479.216C384.904 478.791 384.904 475.393 384.904 471.144L385.328 463.497C385.328 463.497 377.257 465.621 373.858 476.667C372.159 482.615 370.884 497.059 371.309 505.981C371.734 511.504 375.557 516.177 381.08 517.026C405.721 521.275 446.08 531.471 556.538 517.451C556.538 517.026 570.982 492.811 573.531 474.968Z" fill="black"/>
<path d="M987.748 447.778C969.905 434.184 943.14 426.112 906.604 435.458C885.787 440.981 861.147 452.027 833.108 470.719C695.886 563.334 556.539 517.027 556.539 517.027C556.539 517.027 560.787 496.21 576.082 470.719C598.598 433.334 645.33 385.752 739.219 379.804C821.637 374.706 882.389 390.425 923.598 408.268C964.382 426.112 985.624 445.654 987.748 447.778Z" fill="white"/>
<path d="M992.845 452.027C990.296 453.301 985.198 453.301 982.649 451.602C981.375 451.177 980.95 450.327 980.1 449.902C950.787 429.935 912.976 436.308 881.538 449.478C846.702 464.347 816.538 489.412 781.277 503.432C710.754 533.17 630.035 539.118 556.113 517.876C555.688 517.876 555.264 517.027 555.264 516.602C562.061 473.693 590.95 436.308 625.787 411.667C661.473 386.602 705.231 375.981 748.14 373.857C822.911 370.033 901.081 382.778 965.656 423.138C973.728 428.236 981.8 433.759 989.022 440.131L990.721 441.406L991.571 442.255C992.845 443.105 993.27 444.38 993.695 446.079C994.12 449.053 993.27 451.177 992.845 452.027ZM983.074 443.53C982.224 444.38 980.95 446.079 981.375 448.628C981.8 449.902 982.224 451.177 983.074 452.027L982.224 451.602C975.002 445.229 967.355 439.706 959.283 434.608C877.29 381.504 715.427 363.236 632.584 421.014C598.597 443.955 574.381 479.641 562.061 518.301L558.662 512.353C630.46 532.321 709.904 525.098 777.878 495.36C813.14 480.491 842.028 455 877.29 439.706C910.852 424.412 954.61 417.615 987.322 439.706L988.172 440.131C988.597 440.556 988.172 440.131 987.747 440.131C987.323 440.131 986.048 440.131 984.773 440.981C983.499 441.406 983.074 442.68 983.074 443.53Z" fill="black"/>
<path d="M386.603 473.268C398.924 476.667 413.368 476.242 426.113 477.092C466.897 477.941 507.682 475.392 548.891 473.268C551.015 473.268 551.865 476.667 549.316 477.092C506.407 483.889 423.564 495.36 384.479 477.092C381.505 475.817 383.63 471.994 386.603 473.268Z" fill="white"/>
<path d="M488.562 282.092C485.163 285.915 479.64 289.739 478.366 293.562C478.366 293.562 478.366 293.562 478.366 293.137C478.366 292.713 478.366 292.288 477.941 292.288C477.941 291.863 477.516 291.863 477.516 291.863C478.791 292.288 480.065 292.288 481.765 292.288C496.634 292.288 520 288.039 535.719 286.34C544.64 285.065 553.987 283.791 563.333 282.941C563.758 282.941 564.183 283.366 564.183 283.791C564.183 284.216 563.758 284.641 563.758 284.641C546.34 291.013 528.497 295.686 510.229 299.085C499.608 300.784 488.562 303.333 477.516 301.209C469.019 299.51 467.745 291.863 474.542 287.19C475.817 284.641 490.686 277.418 488.562 282.092Z" fill="white"/>
<path d="M1224.38 358.137C1482.25 854.771 1028.95 1415.13 488.562 1278.33C245.98 1218.01 50.9803 1007.71 10.6208 760.882C-35.2615 515.327 75.6208 251.503 282.941 112.582C567.157 -82.8433 960.98 -17.8433 1164.48 261.699C1165.75 262.974 1165.33 265.098 1163.63 266.372C1162.35 267.647 1160.23 267.222 1158.95 265.523C1130.91 229.412 1099.05 196.699 1064.22 167.385C1006.86 118.529 939.738 80.2939 868.791 54.3789C507.68 -76.4708 111.307 141.046 32.2875 518.725C-56.9282 941.863 302.908 1331.44 731.993 1273.24C1062.94 1231.6 1308.92 926.144 1281.73 593.921C1275.78 513.627 1254.54 434.183 1219.28 361.111C1218.43 359.836 1219.28 358.137 1220.56 357.287C1221.83 356.438 1223.53 356.863 1224.38 358.137Z" fill="black"/>
</g>
</svg>
